Coordinates
version=1
nRows=16
nColumns=28
inDegrees=yes

Units are S.I. units (second, meters, Newtons, ...)
Angles are in degrees.

endheader
time	pelvis_tilt	pelvis_list	pelvis_rotation	pelvis_tx	pelvis_ty	pelvis_tz	hip_flexion_r	hip_adduction_r	hip_rotation_r	knee_angle_r	ankle_angle_r	subtalar_angle_r	mtp_angle_r	hip_flexion_l	hip_adduction_l	hip_rotation_l	knee_angle_l	socket_flexion	socket_adduction	socket_rotation	socket_tx	socket_ty	socket_tz	foot_flex	lumbar_extension	lumbar_bending	lumbar_rotation
      0.00000000	     -2.87524263	     -2.95664171	     -1.25340071	     -0.79926316	      0.96863654	      0.24895257	    -17.57511942	      6.16641217	      1.53346686	     -6.37127920	      3.20722568	    -11.61378553	     21.62927420	     28.14957702	      0.01586213	      4.83423839	     -6.02661001	     -1.66827760	     -2.78797492	      0.55481152	      0.01367569	     -0.00025923	     -0.01326401	     -1.11473780	     -8.24109635	      4.05566029	     -2.46568723
      0.00416667	     -2.83353174	     -2.79644498	     -1.29662120	     -0.79365718	      0.96747714	      0.24885230	    -17.83660034	      5.98072245	      1.52906350	     -6.58885899	      3.22671592	    -11.57598087	     21.71739057	     28.21555780	      0.19107752	      4.89767057	     -6.28574491	     -1.42037365	     -2.78963258	      0.59929589	      0.01465955	     -0.00046181	     -0.01339792	     -1.66647677	     -8.26836695	      3.84919226	     -2.67071372
      0.00833333	     -2.78362951	     -2.67368224	     -1.32045692	     -0.78779903	      0.96624622	      0.24848381	    -18.10246351	      5.81365289	      1.46749893	     -6.84666386	      3.24845805	    -11.55537451	     21.81664865	     28.24191327	      0.40561324	      4.96089297	     -6.53960353	     -1.17498017	     -2.85732102	      0.64406278	      0.01542520	     -0.00074900	     -0.01314692	     -2.22648230	     -8.27594478	      3.71392442	     -2.79695140
      0.01250000	     -2.73102840	     -2.54348600	     -1.33271833	     -0.78176530	      0.96500932	      0.24814777	    -18.36059942	      5.64751683	      1.40253544	     -7.14043293	      3.25766461	    -11.53838444	     21.92007513	     28.28025834	      0.62151456	      5.03403637	     -6.81820806	     -0.90561646	     -2.90822838	      0.69011554	      0.01624513	     -0.00101566	     -0.01296209	     -2.76767027	     -8.29122549	      3.55577973	     -2.86768913
      0.01666667	     -2.67658187	     -2.41257009	     -1.34046613	     -0.77557573	      0.96375740	      0.24778136	    -18.61336348	      5.47919914	      1.31678407	     -7.45799990	      3.25359564	    -11.52553583	     22.03066129	     28.32469511	      0.85061177	      5.09428998	     -7.11295839	     -0.61981832	     -2.95116066	      0.71751206	      0.01712767	     -0.00130831	     -0.01268993	     -3.33795900	     -8.30888889	      3.38977965	     -2.90262446
      0.02083333	     -2.62551372	     -2.26758790	     -1.33940854	     -0.76925399	      0.96251832	      0.24744307	    -18.85195241	      5.30497430	      1.22287184	     -7.80520315	      3.23268311	    -11.51458189	     22.15076410	     28.37186382	      1.09274566	      5.15166667	     -7.42165943	     -0.31966783	     -2.98775677	      0.73852063	      0.01799036	     -0.00159462	     -0.01243149	     -3.90253421	     -8.32212030	      3.20523645	     -2.91333988
      0.02500000	     -2.57660432	     -2.11424100	     -1.33272412	     -0.76282389	      0.96130287	      0.24707965	    -19.07138459	      5.11970077	      1.12003415	     -8.18676835	      3.18848539	    -11.50686461	     22.27853313	     28.42733289	      1.34171702	      5.19984246	     -7.74611422	     -0.00338378	     -3.01784759	      0.74453382	      0.01888493	     -0.00186838	     -0.01223270	     -4.47099339	     -8.33798076	      3.00205152	     -2.90947472
      0.02916667	     -2.52930105	     -1.94730129	     -1.31895301	     -0.75631937	      0.96013728	      0.24672471	    -19.25810714	      4.92481998	      0.99249379	     -8.62280665	      3.11361256	    -11.50477352	     22.42473324	     28.48170157	      1.62527557	      5.23449309	     -8.08005494	      0.32290404	     -3.04132250	      0.73795632	      0.01978573	     -0.00211099	     -0.01178336	     -5.03486584	     -8.35382283	      2.77501808	     -2.89529338
      0.03333333	     -2.51210722	     -1.79633735	     -1.30704668	     -0.74978162	      0.95896392	      0.24632677	    -19.42844143	      4.74319421	      0.91678781	     -9.02456788	      3.02806370	    -11.50336196	     22.53860919	     28.51904416	      1.83838032	      5.27183736	     -8.41969124	      0.65849239	     -3.05133736	      0.72696152	      0.02000000	     -0.00244406	     -0.01188953	     -5.48766811	     -8.33802021	      2.57593596	     -2.88271444
      0.03750000	     -2.03690016	     -0.95507823	     -1.09101911	     -0.74197336	      0.95844082	      0.24526535	    -19.97675520	      3.68864133	     -0.85932810	     -9.68751438	      2.87858454	     -9.83258132	     26.49592368	     27.72560676	      3.26505874	      5.65042625	     -9.46662615	     -0.13049705	     -3.51461137	      0.01656577	      0.01712087	     -0.00250631	     -0.00862987	     -6.07262015	     -8.63572142	      1.55996315	     -2.87863280
      0.04166667	     -2.03259334	     -0.80123659	     -1.09314085	     -0.73568982	      0.95742637	      0.24511348	    -20.10072428	      3.53892050	     -0.72473762	    -10.09594905	      2.79728826	     -9.86675057	     26.57664447	     27.87969017	      3.36368417	      5.68354573	     -9.87280573	      0.26822995	     -3.33746966	      0.01190701	      0.01789720	     -0.00266487	     -0.00942040	     -6.42658097	     -8.69542674	      1.34782268	     -2.91441051
      0.04583333	     -2.13393016	     -0.60678845	     -1.07530132	     -0.72926899	      0.95642900	      0.24463676	    -19.86001992	      3.28276903	     -1.04929541	    -10.98282108	      2.51405571	    -10.22132240	     26.89911428	     28.09731969	      3.74264232	      5.47740391	    -10.25621808	      0.64125422	     -3.44623909	      0.06301498	      0.01861066	     -0.00261444	     -0.00829624	     -6.91514748	     -8.56291030	      1.12309173	     -2.94024401
      0.05000000	     -2.14077930	     -0.44239301	     -0.97498625	     -0.72277625	      0.95559232	      0.24443841	    -19.94813215	      3.17561616	     -0.89741910	    -11.44013927	      2.33493458	    -10.22637286	     26.98619019	     28.23067943	      3.89495505	      5.51168866	    -10.65793150	      1.03256698	     -3.29477319	      0.11503092	      0.01933793	     -0.00276253	     -0.00904080	     -7.20186793	     -8.55460204	      0.83762911	     -2.96360205
      0.05416667	     -2.25738667	     -0.17601989	     -0.97189048	     -0.71629751	      0.95475794	      0.24389883	    -19.60392366	      2.80740705	     -1.30276186	    -12.43861506	      1.76367627	    -10.54725979	     27.28713510	     28.45187436	      4.33960704	      5.28398731	    -11.12597377	      1.33422552	     -3.40493367	      0.11512771	      0.01988183	     -0.00266079	     -0.00793738	     -7.58831802	     -8.40817514	      0.53755847	     -2.98774489
      0.05833333	     -2.28769762	     -0.01773671	     -0.82880349	     -0.70968793	      0.95410361	      0.24364665	    -19.65494656	      2.72112552	     -1.16252712	    -12.89305654	      1.56813871	    -10.55574030	     27.38396639	     28.54429324	      4.50934446	      5.29331025	    -11.53989842	      1.71860042	     -3.25861683	      0.16769836	      0.02000000	     -0.00281673	     -0.00845888	     -7.73466692	     -8.36502538	      0.25823768	     -3.00760031
      0.06250000	     -3.06987460	      0.23007787	     -0.77254576	     -0.70313420	      0.95238765	      0.24294518	    -18.42919197	      2.33627476	     -1.76038665	    -14.13861441	      0.45427281	    -11.13481818	     32.39044516	     30.13750758	      5.04786727	      3.55162527	    -14.42922985	      0.35541085	     -3.78208240	      1.55325088	      0.02000000	     -0.00173089	     -0.00606167	     -7.82086870	     -7.39215091	     -0.00227634	     -3.24308444
